HIERARCHY
ROOT Hips
{
	OFFSET 0.000000 0.000000 0.000000
	CHANNELS 6 Xposition Yposition Zposition Zrotation Yrotation Xrotation 
	JOINT LHipJoint
	{
		OFFSET 0.000000 0.000000 0.000000
		CHANNELS 3 Zrotation Yrotation Xrotation
		JOINT LeftUpLeg
		{
			OFFSET 1.363060 -1.794630 0.839290
			CHANNELS 3 Zrotation Yrotation Xrotation
			JOINT LeftLeg
			{
				OFFSET 2.448110 -6.726130 0.000000
				CHANNELS 3 Zrotation Yrotation Xrotation
				JOINT LeftFoot
				{
					OFFSET 2.562200 -7.039590 0.000000
					CHANNELS 3 Zrotation Yrotation Xrotation
					JOINT LeftToeBase
					{
						OFFSET 0.157640 -0.433110 2.322550
						CHANNELS 3 Zrotation Yrotation Xrotation
						End Site
						{
							OFFSET 0.000000 0.000000 0.000000
						}
					}
				}
			}
		}
	}
	JOINT RHipJoint
	{
		OFFSET 0.000000 0.000000 0.000000
		CHANNELS 3 Zrotation Yrotation Xrotation
		JOINT RightUpLeg
		{
			OFFSET -1.305520 -1.794630 0.839290
			CHANNELS 3 Zrotation Yrotation Xrotation
			JOINT RightLeg
			{
				OFFSET -2.542530 -6.985550 0.000000
				CHANNELS 3 Zrotation Yrotation Xrotation
				JOINT RightFoot
				{
					OFFSET -2.568260 -7.056230 0.000000
					CHANNELS 3 Zrotation Yrotation Xrotation
					JOINT RightToeBase
					{
						OFFSET -0.164730 -0.452590 2.363150
						CHANNELS 3 Zrotation Yrotation Xrotation
						End Site
						{
							OFFSET 0.000000 0.000000 0.000000
						}
					}
				}
			}
		}
	}
	JOINT LowerBack
	{
		OFFSET 0.000000 0.000000 0.000000
		CHANNELS 3 Zrotation Yrotation Xrotation
		JOINT Spine
		{
			OFFSET 0.028270 2.035590 -0.193380
			CHANNELS 3 Zrotation Yrotation Xrotation
			JOINT Spine1
			{
				OFFSET 0.056720 2.048850 -0.042750
				CHANNELS 3 Zrotation Yrotation Xrotation
				JOINT Neck
				{
					OFFSET 0.000000 0.000000 0.000000
					CHANNELS 3 Zrotation Yrotation Xrotation
					JOINT Neck1
					{
						OFFSET -0.054170 1.746240 0.172020
						CHANNELS 3 Zrotation Yrotation Xrotation
						JOINT Head
						{
							OFFSET 0.104070 1.761360 -0.123970
							CHANNELS 3 Zrotation Yrotation Xrotation
							End Site
							{
								OFFSET 0.000000 0.000000 0.000000
							}
						}
					}
				}
				JOINT LeftShoulder
				{
					OFFSET 0.000000 0.000000 0.000000
					CHANNELS 3 Zrotation Yrotation Xrotation
					JOINT LeftArm
					{
						OFFSET 3.362410 1.200890 -0.311210
						CHANNELS 3 Zrotation Yrotation Xrotation
						JOINT LeftForeArm
						{
							OFFSET 4.983000 -0.000000 -0.000000
							CHANNELS 3 Zrotation Yrotation Xrotation
							JOINT LeftHand
							{
								OFFSET 3.483560 -0.000000 -0.000000
								CHANNELS 3 Zrotation Yrotation Xrotation
								JOINT LeftFingerBase
								{
									OFFSET 0.000000 0.000000 0.000000
									CHANNELS 3 Zrotation Yrotation Xrotation
									JOINT LeftHandIndex1
									{
										OFFSET 0.715260 -0.000000 -0.000000
										CHANNELS 3 Zrotation Yrotation Xrotation
										End Site
										{
											OFFSET 0.000000 0.000000 0.000000
										}
									}
								}
								JOINT LThumb
								{
									OFFSET 0.000000 0.000000 0.000000
									CHANNELS 3 Zrotation Yrotation Xrotation
									End Site
									{
										OFFSET 0.000000 0.000000 0.000000
									}
								}
							}
						}
					}
				}
				JOINT RightShoulder
				{
					OFFSET 0.000000 0.000000 0.000000
					CHANNELS 3 Zrotation Yrotation Xrotation
					JOINT RightArm
					{
						OFFSET -3.136600 1.374050 -0.404650
						CHANNELS 3 Zrotation Yrotation Xrotation
						JOINT RightForeArm
						{
							OFFSET -5.241900 -0.000000 -0.000000
							CHANNELS 3 Zrotation Yrotation Xrotation
							JOINT RightHand
							{
								OFFSET -3.444170 -0.000000 -0.000000
								CHANNELS 3 Zrotation Yrotation Xrotation
								JOINT RightFingerBase
								{
									OFFSET 0.000000 0.000000 0.000000
									CHANNELS 3 Zrotation Yrotation Xrotation
									JOINT RightHandIndex1
									{
										OFFSET -0.622530 -0.000000 -0.000000
										CHANNELS 3 Zrotation Yrotation Xrotation
										End Site
										{
											OFFSET 0.000000 0.000000 0.000000
										}
									}
								}
								JOINT RThumb
								{
									OFFSET 0.000000 0.000000 0.000000
									CHANNELS 3 Zrotation Yrotation Xrotation
									End Site
									{
										OFFSET 0.000000 0.000000 0.000000
									}
								}
							}
						}
					}
				}
			}
		}
	}
}
MOTION
Frames: 5
Frame Time: 0.016667
-1.793893 16.976009 24.097048 -3.709044 30.742023 7.672007 -27.804630 23.010220 -12.689244 -14.080537 10.676111 -29.199645 -54.172755 44.189477 -27.457544 24.910132 60.925901 -18.258577 0.000000 0.000000 0.000000 15.521777 -22.444305 7.694911 10.497947 13.007422 -22.270277 4.058729 -21.888796 53.496275 43.720226 -73.474445 -2.847884 0.000000 0.000000 0.000000 13.035352 -2.089279 16.049370 2.611370 -3.318913 -1.285800 -19.100952 5.350049 -4.398001 6.179161 1.140209 -26.557641 12.000266 -1.546512 35.985047 0.000000 0.000000 0.000000 6.883961 -1.324790 3.112242 -69.448860 -30.770706 0.630034 -162.593381 -79.199648 161.299496 -34.661759 67.531057 -17.875399 -60.761605 51.238425 -0.000000 0.000000 0.000000 0.000000 0.000000 0.000000 0.000000 -30.197133 -2.475690 13.669918 98.440839 14.649599 -1.900559 28.768611 -24.206374 0.242946 -0.991126 1.504861 0.122220 -1.004879 1.497044 0.000000 0.000000 0.000000 0.000000 0.000000 0.000000 0.000000 
-1.808482 17.002545 24.284813 -3.409391 30.798963 7.619992 -27.594384 23.458219 -12.534026 -14.320467 11.227001 -28.920826 -53.818078 44.119792 -26.959619 25.931942 60.750691 -17.893621 0.000000 0.000000 0.000000 15.764933 -22.419247 7.847270 10.198928 12.250261 -21.804366 4.712796 -21.047596 53.018175 45.083794 -73.962989 -3.784525 0.000000 0.000000 0.000000 12.861079 -2.105047 16.193370 2.637637 -3.408334 -1.292339 -19.106512 5.235370 -4.363613 6.154470 1.131077 -26.574651 12.032711 -1.563179 35.993523 0.000000 0.000000 0.000000 6.873200 -1.401709 3.131482 -69.438899 -30.764416 0.637817 -162.592423 -79.198676 161.297365 -34.659586 67.522664 -17.872571 -60.751490 51.236958 -0.000000 0.000000 0.000000 0.000000 0.000000 0.000000 0.000000 -30.189861 -2.501893 13.693793 98.440054 14.615854 -1.906637 28.771193 -24.203206 0.242460 -0.991489 1.504588 0.121976 -1.005218 1.496777 0.000000 0.000000 0.000000 0.000000 0.000000 0.000000 0.000000 
-1.820488 17.030357 24.468862 -3.108035 30.848532 7.561149 -27.391232 23.900689 -12.404595 -14.565218 11.825880 -28.625742 -53.410100 44.057618 -26.426816 26.946265 60.554967 -17.474823 0.000000 0.000000 0.000000 16.010416 -22.412295 8.020032 9.873063 11.512085 -21.370264 5.369251 -20.170876 52.562695 46.412970 -74.435261 -4.706083 0.000000 0.000000 0.000000 12.685959 -2.121006 16.344806 2.664274 -3.496899 -1.298744 -19.115419 5.121995 -4.331256 6.126178 1.123531 -26.600050 12.070958 -1.581424 36.005704 0.000000 0.000000 0.000000 6.864243 -1.481866 3.151721 -69.428509 -30.762553 0.641467 -162.584685 -79.198015 161.292495 -34.659441 67.517455 -17.872235 -60.747364 51.235568 -0.000000 0.000000 0.000000 0.000000 0.000000 0.000000 0.000000 -30.183861 -2.525491 13.722371 98.439388 14.584010 -1.917402 28.778664 -24.202424 0.242024 -0.991891 1.504398 0.121757 -1.005600 1.496590 0.000000 0.000000 0.000000 0.000000 0.000000 0.000000 0.000000 
-1.829532 17.059006 24.648573 -2.808202 30.895788 7.494512 -27.200307 24.351113 -12.309538 -14.829641 12.486253 -28.319505 -52.952498 44.030402 -25.872533 27.961077 60.372773 -16.993652 0.000000 0.000000 0.000000 16.255719 -22.424839 8.211632 9.527641 10.796320 -20.968885 6.021397 -19.263246 52.137977 47.699805 -74.888160 -5.600828 0.000000 0.000000 0.000000 12.510695 -2.141578 16.505537 2.692452 -3.588248 -1.305823 -19.119787 5.007621 -4.294963 6.105263 1.113829 -26.610381 12.099593 -1.596022 36.009639 0.000000 0.000000 0.000000 6.854655 -1.556865 3.168312 -69.421579 -30.759682 0.649243 -162.582004 -79.197389 161.290311 -34.657450 67.510816 -17.870864 -60.739927 51.233768 -0.000000 0.000000 0.000000 0.000000 0.000000 0.000000 0.000000 -30.178312 -2.553336 13.745027 98.437686 14.552126 -1.923743 28.782748 -24.201314 0.241576 -0.992273 1.504214 0.121532 -1.005961 1.496411 0.000000 0.000000 0.000000 0.000000 0.000000 0.000000 0.000000 
-1.835011 17.088066 24.823909 -2.510878 30.946649 7.419207 -27.022296 24.816034 -12.252398 -15.119453 13.216834 -28.002428 -52.452467 44.058579 -25.304910 28.964533 60.218878 -16.461453 0.000000 0.000000 0.000000 16.497723 -22.457378 8.422261 9.166873 10.105759 -20.598702 6.668176 -18.329493 51.747282 48.945507 -75.320492 -6.466290 0.000000 0.000000 0.000000 12.336719 -2.168399 16.674680 2.723469 -3.683649 -1.313331 -19.119383 4.891050 -4.254307 6.092186 1.102013 -26.605112 12.118200 -1.606800 36.005090 0.000000 0.000000 0.000000 6.844185 -1.627562 3.181322 -69.418586 -30.756047 0.661505 -162.584564 -79.196885 161.290843 -34.653408 67.502597 -17.868545 -60.729036 51.231382 -0.000000 0.000000 0.000000 0.000000 0.000000 0.000000 0.000000 -30.173160 -2.585822 13.761764 98.434664 14.519775 -1.925356 28.783235 -24.200047 0.241118 -0.992632 1.504026 0.121302 -1.006294 1.496231 0.000000 0.000000 0.000000 0.000000 0.000000 0.000000 0.000000 
